# xmcd CD database file
#
# Track frame offsets:
#	150
#	22688
#	42219
#	64104
#	102290
#	123278
#	142975
#	165129
#	203710
#	226527
#	238326
#	272139
#
# Disc length: 3831 seconds
#
# Revision: 0
# Processed by: cddbd v1.5.2PL0 Copyright (c) Steve Scherf et al.
# Submitted via: CDex 1.70beta2
#
DISCID=8f0ef50c
DTITLE=David Landon Band - This TIme
DYEAR=2009
DGENRE=Blues
TTITLE0=The Biggest Fool
TTITLE1=Think Twice
TTITLE2=Say Goodbye
TTITLE3=Who's Lovin You?
TTITLE4=Log Jam
TTITLE5=One Hundred Years
TTITLE6=Ducks In A Row
TTITLE7=I'm Gonna Quit You
TTITLE8=A Man's Gotta Be A Man
TTITLE9=You've Done Nothing Wrong
TTITLE10=This Time
TTITLE11=Goodbye My Friend
EXTD=YEAR: 2009
EXTT0=
EXTT1=
EXTT2=
EXTT3=
EXTT4=
EXTT5=
EXTT6=
EXTT7=
EXTT8=
EXTT9=
EXTT10=
EXTT11=
PLAYORDER=
